<!DOCTYPE svg PUBLIC "-//W3C//DTD SVG 1.1//EN" "http://www.w3.org/Graphics/SVG/1.1/DTD/svg11.dtd">
<!-- Uploaded to: SVG Repo, www.svgrepo.com, Transformed by: SVG Repo Mixer Tools -->
<svg width="64px" height="64px" viewBox="-2.88 -2.88 29.76 29.76" fill="none" xmlns="http://www.w3.org/2000/svg">
<g id="SVGRepo_bgCarrier" stroke-width="0"/>
<g id="SVGRepo_tracerCarrier" stroke-linecap="round" stroke-linejoin="round"/>
<g id="SVGRepo_iconCarrier"> <path d="M1.99701 12C1.99701 16.2692 4.67284 19.9142 8.43868 21.3483C8.34701 20.5675 8.24951 19.28 8.45951 18.3767C8.64034 17.6 9.62701 13.4283 9.62701 13.4283C9.62701 13.4283 9.32951 12.8325 9.32951 11.95C9.32951 10.5667 10.1312 9.53333 11.1303 9.53333C11.9803 9.53333 12.3903 10.1708 12.3903 10.935C12.3903 11.7892 11.8462 13.0658 11.5653 14.25C11.3312 15.2408 12.0628 16.0492 13.0395 16.0492C14.8087 16.0492 16.1695 14.1833 16.1695 11.49C16.1695 9.10583 14.4562 7.44 12.0103 7.44C9.17868 7.44 7.51618 9.56417 7.51618 11.76C7.51618 12.6158 7.84534 13.5325 8.25701 14.0317C8.29211 14.0694 8.3169 14.1155 8.32902 14.1655C8.34113 14.2156 8.34015 14.2679 8.32618 14.3175C8.25034 14.6325 8.08201 15.3083 8.04951 15.4467C8.00534 15.6283 7.90534 15.6675 7.71618 15.5792C6.47284 15.0008 5.69618 13.1833 5.69618 11.7233C5.69618 8.5825 7.97701 5.69917 12.2728 5.69917C15.7262 5.69917 18.4103 8.16 18.4103 11.4483C18.4103 14.8792 16.2478 17.6408 13.2445 17.6408C12.2353 17.6408 11.2878 17.1158 10.9628 16.4967C10.9628 16.4967 10.4637 18.3983 10.3428 18.8633C10.1078 19.7667 9.45618 20.91 9.05201 21.5592C9.98368 21.8458 10.972 22 11.997 22C17.5195 22 21.997 17.5225 21.997 12C21.997 6.4775 17.5195 2 11.997 2C6.47451 2 1.99701 6.4775 1.99701 12Z" stroke="#a9a4a4" stroke-linejoin="round"/> </g>
</svg>