<!DOCTYPE svg PUBLIC "-//W3C//DTD SVG 1.1//EN" "http://www.w3.org/Graphics/SVG/1.1/DTD/svg11.dtd">

<!-- Uploaded to: SVG Repo, www.svgrepo.com, Transformed by: SVG Repo Mixer Tools -->
<svg width="64px" height="64px" viewBox="0 0 24 24" fill="none" xmlns="http://www.w3.org/2000/svg">

<g id="SVGRepo_bgCarrier" stroke-width="0"/>

<g id="SVGRepo_tracerCarrier" stroke-linecap="round" stroke-linejoin="round"/>

<g id="SVGRepo_iconCarrier"> <path d="M9 10H9.01M15 10H15.01M8.53516 14C9.22678 15.1956 10.5195 16 12 16C13.4806 16 14.7733 15.1956 15.4649 14M12 20C15.7277 20 18.8599 17.4505 19.748 14H20C21.1046 14 22 13.1046 22 12C22 10.8954 21.1046 10 20 10H19.748C18.8599 6.54955 15.7277 4 12 4C8.27232 4 5.14012 6.54955 4.25204 10H4C2.89543 10 2 10.8954 2 12C2 13.1046 2.89543 14 4 14H4.25204C5.14012 17.4505 8.27232 20 12 20Z" stroke="#000000" stroke-width="2" stroke-linecap="round" stroke-linejoin="round"/> </g>

</svg>